<?xml version="1.0" standalone="no"?>
<!DOCTYPE svg PUBLIC "-//W3C//DTD SVG 20010904//EN"
 "http://www.w3.org/TR/2001/REC-SVG-20010904/DTD/svg10.dtd">
<svg version="1.0" xmlns="http://www.w3.org/2000/svg"
 width="300.000000pt" height="300.000000pt" viewBox="0 0 300.000000 300.000000"
 preserveAspectRatio="xMidYMid meet">
<metadata>
Created by potrace 1.11, written by Peter Selinger 2001-2013
</metadata>
<g transform="translate(0.000000,300.000000) scale(0.100000,-0.100000)"
fill="#000000" stroke="none">
<path d="M384 1495 c0 -715 0 -715 20 -716 33 -1 118 -1 152 0 l30 1 -1 165
-1 165 73 72 c40 39 74 70 76 67 2 -2 45 -104 97 -226 51 -122 97 -227 100
-234 6 -9 119 -15 191 -10 13 1 -13 70 -117 318 -74 175 -134 318 -134 319 0
1 12 15 28 32 15 16 56 62 91 101 35 39 66 69 69 67 2 -3 84 -191 182 -418
154 -358 180 -413 201 -418 35 -9 67 0 72 19 2 9 62 155 132 324 l128 307 99
-232 c55 -128 105 -246 113 -263 7 -16 23 -55 36 -85 12 -30 28 -60 36 -66 14
-12 61 -10 74 3 4 4 73 159 152 344 80 185 154 356 165 380 54 120 92 215 90
224 -2 5 -45 9 -97 10 -83 0 -95 -2 -106 -20 -7 -11 -63 -140 -126 -287 -63
-148 -116 -268 -119 -268 -3 0 -56 125 -119 278 -63 152 -120 282 -127 288
-10 8 -88 11 -135 5 -4 -1 -60 -129 -125 -286 -66 -156 -121 -285 -124 -285
-3 0 -25 44 -47 98 -95 223 -201 464 -207 470 -4 3 -65 7 -136 7 l-130 1 -172
-173 c-95 -95 -175 -173 -178 -173 -3 0 -5 182 -5 405 l1 405 -101 0 -101 0 0
-715z"/>
</g>
</svg>
